<svg xmlns="http://www.w3.org/2000/svg" viewBox="0 0 24 24"><defs><linearGradient id="gradient" x1="0%" y1="0%" x2="100%" y2="100%"><stop offset="0%" style="stop-color:#000000"/><stop offset="100%" style="stop-color:#FF0050"/></linearGradient></defs><path d="M12 0C5.4 0 0 5.4 0 12s5.4 12 12 12 12-5.4 12-12S18.6 0 12 0zm6.5 9.3c-.9 0-1.7-.3-2.4-.7v5.7c0 3.1-2.5 5.7-5.7 5.7s-5.7-2.5-5.7-5.7 2.5-5.7 5.7-5.7c.3 0 .6 0 .9.1V12c-.3-.1-.6-.2-.9-.2-1.6 0-2.8 1.3-2.8 2.8 0 1.6 1.3 2.8 2.8 2.8 1.6 0 2.8-1.3 2.8-2.8V0h2.9c.2 2.4 2.2 4.3 4.7 4.3v2.8c-1.5 0-2.9-.7-3.8-1.8v4z" fill="url(#gradient)"/></svg>