<svg xmlns="http://www.w3.org/2000/svg" viewBox="0 0 24 24" fill="none" stroke="#c59d5f" stroke-width="1.5" stroke-linecap="round" stroke-linejoin="round">
  <path d="M17 12a1 1 0 0 1 1 1v4a1 1 0 0 1-1 1H3a1 1 0 0 1-1-1v-4a1 1 0 0 1 1-1h14z"></path>
  <path d="M6 12V3a3 3 0 0 1 3-3h7a3 3 0 0 1 3 3v9"></path>
  <path d="M12 5h4"></path>
  <circle cx="8" cy="16" r="1"></circle>
  <circle cx="12" cy="16" r="1"></circle>
  <circle cx="10" cy="6" r="1"></circle>
  <circle cx="8" cy="9" r="1"></circle>
  <circle cx="12" cy="9" r="1"></circle>
</svg> 