<?xml version="1.0" encoding="UTF-8"?>
<svg width="120" height="120" viewBox="0 0 120 120" xmlns="http://www.w3.org/2000/svg">
  <defs>
    <linearGradient id="goldGradient" x1="0%" y1="0%" x2="100%" y2="100%">
      <stop offset="0%" stop-color="#e6c673" />
      <stop offset="50%" stop-color="#c59d5f" />
      <stop offset="100%" stop-color="#a17d38" />
    </linearGradient>
  </defs>
  <g fill="none" stroke="url(#goldGradient)" stroke-width="2.5" stroke-linecap="round" stroke-linejoin="round">
    <!-- 圆形底座 -->
    <circle cx="60" cy="60" r="55" fill="none" stroke="url(#goldGradient)" stroke-width="1.5" opacity="0.1" />
    <circle cx="60" cy="60" r="52" fill="none" stroke="url(#goldGradient)" stroke-width="1" opacity="0.05" />
    
    <!-- 仙鹤身体 -->
    <path d="M45,90 C45,75 50,65 60,60 C70,55 75,45 75,35 C75,25 70,20 65,18" />
    
    <!-- 仙鹤头和颈部 -->
    <path d="M65,18 C60,15 55,20 55,25 C55,30 60,32 65,30" />
    <circle cx="62" cy="22" r="1.5" fill="url(#goldGradient)" />
    
    <!-- 仙鹤腿 -->
    <path d="M60,60 L70,85" />
    <path d="M70,85 L68,95" />
    <path d="M70,85 L77,93" />
    
    <!-- 仙鹤翅膀 -->
    <path d="M60,60 C65,55 75,58 80,65 C85,72 85,80 80,85" />
    <path d="M60,60 C55,55 45,58 40,65 C35,72 35,80 40,85" />
    
    <!-- 装饰线条 -->
    <path d="M30,60 C35,65 40,70 60,70 C80,70 85,65 90,60" opacity="0.7" />
  </g>
</svg>