<svg xmlns="http://www.w3.org/2000/svg" viewBox="0 0 24 24"><path d="M15.9 7.2c.6.2 1.2.2 1.8.2.3 0 .6-.1.9-.2.8-.4 1.3-1.2 1.3-2.1 0-1.3-1.1-2.4-2.4-2.4-1.3 0-2.4 1.1-2.4 2.4 0 .8.3 1.5.8 1.9zm4.3 2.5c-.3-.1-.6-.1-.9-.1-1.8 0-3.3 1.4-3.5 3.2-.2 2.2 1.4 4.1 3.6 4.3.3 0 .6 0 .9-.1 1.8-.4 3-2 3-3.8 0-1.8-1.3-3.2-3.1-3.5zM12 22.4C5.4 22.4 0 18.8 0 14.4c0-2.3 1.2-4.5 3.3-6.1 2.9-2.2 7-3.1 10.7-2.4 1.9.4 4.4 1.3 5.6 3.1.4.6.5 1.3.5 2 0 1.9-1.5 3.4-3.4 3.4h-.3c-.3 0-.6-.1-.9-.2-.5-.2-.9-.6-1.1-1.1-.2-.5-.2-1 0-1.5.1-.2.1-.3.1-.5 0-.8-.6-1.4-1.4-1.4s-1.4.6-1.4 1.4c0 .7.2 1.4.5 2 .9 1.7 2.7 2.8 4.6 2.8h.3c2.4 0 4.4-2 4.4-4.4 0-.9-.1-1.8-.5-2.6C19.4 7 16.4 5.9 14.2 5.5c-4.1-.8-8.6.2-11.8 2.6C-.1 10.3-1 13 1.1 15.3c2.8 3.1 8.4 4.3 12.4 3.5.7-.1 1.3.3 1.5 1 .1.7-.3 1.3-1 1.5-2.1.4-4.3.4-6.3 0-.7-.1-1.1.3-1.2 1-.1.7.3 1.1 1 1.2 1.6.3 3.2.4 4.8.4h.2c2.1 0 4.2-.3 6.2-1 .6-.2 1-.9.8-1.5-.2-.6-.9-1-1.5-.8-1.7.6-3.5.8-5.3.8h-.2c-1.3 0-2.7-.1-4-.3-.7-.1-1.1.3-1.2 1-.1.7.3 1.1 1 1.2 1.6.3 3.2.4 4.8.4h.2z" fill="#E6162D"/></svg>