<?xml version="1.0" encoding="UTF-8"?>
<svg width="200" height="200" viewBox="0 0 200 200" xmlns="http://www.w3.org/2000/svg">
  <style>
    .crane-body { fill: none; stroke: #4A5568; stroke-width: 2; }
    .crane-detail { fill: #4A5568; }
  </style>
  <g transform="translate(20, 20)">
    <!-- 仙鹤的头部和颈部 -->
    <path class="crane-body" d="M 120,100 C 120,80 110,60 100,40 90,20 80,10 70,20 60,30 70,50 80,60 90,70 100,80 90,90 80,100 70,110 60,120"/>
    <!-- 仙鹤的身体 -->
    <path class="crane-body" d="M 60,120 C 50,130 40,140 50,150 60,160 80,160 100,150 120,140 130,130 140,120"/>
    <!-- 仙鹤的翅膀 -->
    <path class="crane-body" d="M 90,90 C 100,100 110,110 130,100 150,90 160,80 150,70 140,60 130,70 120,80 110,90 100,90 90,90"/>
    <!-- 仙鹤的眼睛 -->
    <circle class="crane-detail" cx="75" cy="25" r="2"/>
    <!-- 仙鹤的腿 -->
    <path class="crane-body" d="M 80,150 L 70,170 M 100,150 L 110,170"/>
  </g>
</svg>